G04 #@! TF.GenerationSoftware,KiCad,Pcbnew,5.0.1*
G04 #@! TF.CreationDate,2019-01-30T09:30:50+01:00*
G04 #@! TF.ProjectId,esp8266_rgb_strip_controller,657370383236365F736578795F737472,rev?*
G04 #@! TF.SameCoordinates,Original*
G04 #@! TF.FileFunction,Soldermask,Bot*
G04 #@! TF.FilePolarity,Negative*
%FSLAX46Y46*%
G04 Gerber Fmt 4.6, Leading zero omitted, Abs format (unit mm)*
G04 Created by KiCad (PCBNEW 5.0.1) date Wed 30 Jan 2019 09:30:50 AM CET*
%MOMM*%
%LPD*%
G01*
G04 APERTURE LIST*
%ADD10C,0.100000*%
G04 APERTURE END LIST*
D10*
G36*
X112660721Y-79220174D02*
X112760995Y-79261709D01*
X112851245Y-79322012D01*
X112927988Y-79398755D01*
X112988291Y-79489005D01*
X113029826Y-79589279D01*
X113051000Y-79695730D01*
X113051000Y-79804270D01*
X113029826Y-79910721D01*
X112988291Y-80010995D01*
X112927988Y-80101245D01*
X112851245Y-80177988D01*
X112760995Y-80238291D01*
X112660721Y-80279826D01*
X112554270Y-80301000D01*
X112445730Y-80301000D01*
X112339279Y-80279826D01*
X112239005Y-80238291D01*
X112148755Y-80177988D01*
X112072012Y-80101245D01*
X112011709Y-80010995D01*
X111970174Y-79910721D01*
X111949000Y-79804270D01*
X111949000Y-79695730D01*
X111970174Y-79589279D01*
X112011709Y-79489005D01*
X112072012Y-79398755D01*
X112148755Y-79322012D01*
X112239005Y-79261709D01*
X112339279Y-79220174D01*
X112445730Y-79199000D01*
X112554270Y-79199000D01*
X112660721Y-79220174D01*
X112660721Y-79220174D01*
G37*
G36*
X112660721Y-77220174D02*
X112760995Y-77261709D01*
X112851245Y-77322012D01*
X112927988Y-77398755D01*
X112988291Y-77489005D01*
X113029826Y-77589279D01*
X113051000Y-77695730D01*
X113051000Y-77804270D01*
X113029826Y-77910721D01*
X112988291Y-78010995D01*
X112927988Y-78101245D01*
X112851245Y-78177988D01*
X112760995Y-78238291D01*
X112660721Y-78279826D01*
X112554270Y-78301000D01*
X112445730Y-78301000D01*
X112339279Y-78279826D01*
X112239005Y-78238291D01*
X112148755Y-78177988D01*
X112072012Y-78101245D01*
X112011709Y-78010995D01*
X111970174Y-77910721D01*
X111949000Y-77804270D01*
X111949000Y-77695730D01*
X111970174Y-77589279D01*
X112011709Y-77489005D01*
X112072012Y-77398755D01*
X112148755Y-77322012D01*
X112239005Y-77261709D01*
X112339279Y-77220174D01*
X112445730Y-77199000D01*
X112554270Y-77199000D01*
X112660721Y-77220174D01*
X112660721Y-77220174D01*
G37*
G36*
X112660721Y-75220174D02*
X112760995Y-75261709D01*
X112851245Y-75322012D01*
X112927988Y-75398755D01*
X112988291Y-75489005D01*
X113029826Y-75589279D01*
X113051000Y-75695730D01*
X113051000Y-75804270D01*
X113029826Y-75910721D01*
X112988291Y-76010995D01*
X112927988Y-76101245D01*
X112851245Y-76177988D01*
X112760995Y-76238291D01*
X112660721Y-76279826D01*
X112554270Y-76301000D01*
X112445730Y-76301000D01*
X112339279Y-76279826D01*
X112239005Y-76238291D01*
X112148755Y-76177988D01*
X112072012Y-76101245D01*
X112011709Y-76010995D01*
X111970174Y-75910721D01*
X111949000Y-75804270D01*
X111949000Y-75695730D01*
X111970174Y-75589279D01*
X112011709Y-75489005D01*
X112072012Y-75398755D01*
X112148755Y-75322012D01*
X112239005Y-75261709D01*
X112339279Y-75220174D01*
X112445730Y-75199000D01*
X112554270Y-75199000D01*
X112660721Y-75220174D01*
X112660721Y-75220174D01*
G37*
G36*
X98907025Y-74410590D02*
X99058012Y-74456392D01*
X99197165Y-74530770D01*
X99319133Y-74630867D01*
X99419230Y-74752835D01*
X99493608Y-74891988D01*
X99539410Y-75042975D01*
X99554875Y-75200000D01*
X99539410Y-75357025D01*
X99493608Y-75508012D01*
X99419230Y-75647165D01*
X99319133Y-75769133D01*
X99197165Y-75869230D01*
X99058012Y-75943608D01*
X98907025Y-75989410D01*
X98789346Y-76001000D01*
X97210654Y-76001000D01*
X97092975Y-75989410D01*
X96941988Y-75943608D01*
X96802835Y-75869230D01*
X96680867Y-75769133D01*
X96580770Y-75647165D01*
X96506392Y-75508012D01*
X96460590Y-75357025D01*
X96445125Y-75200000D01*
X96460590Y-75042975D01*
X96506392Y-74891988D01*
X96580770Y-74752835D01*
X96680867Y-74630867D01*
X96802835Y-74530770D01*
X96941988Y-74456392D01*
X97092975Y-74410590D01*
X97210654Y-74399000D01*
X98789346Y-74399000D01*
X98907025Y-74410590D01*
X98907025Y-74410590D01*
G37*
G36*
X106207025Y-74010590D02*
X106358012Y-74056392D01*
X106497165Y-74130770D01*
X106619133Y-74230867D01*
X106719230Y-74352835D01*
X106793608Y-74491988D01*
X106839410Y-74642975D01*
X106854875Y-74800000D01*
X106839410Y-74957025D01*
X106793608Y-75108012D01*
X106719230Y-75247165D01*
X106619133Y-75369133D01*
X106497165Y-75469230D01*
X106358012Y-75543608D01*
X106207025Y-75589410D01*
X106089346Y-75601000D01*
X104510654Y-75601000D01*
X104392975Y-75589410D01*
X104241988Y-75543608D01*
X104102835Y-75469230D01*
X103980867Y-75369133D01*
X103880770Y-75247165D01*
X103806392Y-75108012D01*
X103760590Y-74957025D01*
X103745125Y-74800000D01*
X103760590Y-74642975D01*
X103806392Y-74491988D01*
X103880770Y-74352835D01*
X103980867Y-74230867D01*
X104102835Y-74130770D01*
X104241988Y-74056392D01*
X104392975Y-74010590D01*
X104510654Y-73999000D01*
X106089346Y-73999000D01*
X106207025Y-74010590D01*
X106207025Y-74010590D01*
G37*
G36*
X126660721Y-74470174D02*
X126760995Y-74511709D01*
X126851245Y-74572012D01*
X126927988Y-74648755D01*
X126988291Y-74739005D01*
X127029826Y-74839279D01*
X127051000Y-74945730D01*
X127051000Y-75054270D01*
X127029826Y-75160721D01*
X126988291Y-75260995D01*
X126927988Y-75351245D01*
X126851245Y-75427988D01*
X126760995Y-75488291D01*
X126660721Y-75529826D01*
X126554270Y-75551000D01*
X126445730Y-75551000D01*
X126339279Y-75529826D01*
X126239005Y-75488291D01*
X126148755Y-75427988D01*
X126072012Y-75351245D01*
X126011709Y-75260995D01*
X125970174Y-75160721D01*
X125949000Y-75054270D01*
X125949000Y-74945730D01*
X125970174Y-74839279D01*
X126011709Y-74739005D01*
X126072012Y-74648755D01*
X126148755Y-74572012D01*
X126239005Y-74511709D01*
X126339279Y-74470174D01*
X126445730Y-74449000D01*
X126554270Y-74449000D01*
X126660721Y-74470174D01*
X126660721Y-74470174D01*
G37*
G36*
X109410721Y-74220174D02*
X109510995Y-74261709D01*
X109601245Y-74322012D01*
X109677988Y-74398755D01*
X109738291Y-74489005D01*
X109779826Y-74589279D01*
X109801000Y-74695730D01*
X109801000Y-74804270D01*
X109779826Y-74910721D01*
X109738291Y-75010995D01*
X109677988Y-75101245D01*
X109601245Y-75177988D01*
X109510995Y-75238291D01*
X109410721Y-75279826D01*
X109304270Y-75301000D01*
X109195730Y-75301000D01*
X109089279Y-75279826D01*
X108989005Y-75238291D01*
X108898755Y-75177988D01*
X108822012Y-75101245D01*
X108761709Y-75010995D01*
X108720174Y-74910721D01*
X108699000Y-74804270D01*
X108699000Y-74695730D01*
X108720174Y-74589279D01*
X108761709Y-74489005D01*
X108822012Y-74398755D01*
X108898755Y-74322012D01*
X108989005Y-74261709D01*
X109089279Y-74220174D01*
X109195730Y-74199000D01*
X109304270Y-74199000D01*
X109410721Y-74220174D01*
X109410721Y-74220174D01*
G37*
G36*
X126660721Y-71970174D02*
X126760995Y-72011709D01*
X126851245Y-72072012D01*
X126927988Y-72148755D01*
X126988291Y-72239005D01*
X127029826Y-72339279D01*
X127051000Y-72445730D01*
X127051000Y-72554270D01*
X127029826Y-72660721D01*
X126988291Y-72760995D01*
X126927988Y-72851245D01*
X126851245Y-72927988D01*
X126760995Y-72988291D01*
X126660721Y-73029826D01*
X126554270Y-73051000D01*
X126445730Y-73051000D01*
X126339279Y-73029826D01*
X126239005Y-72988291D01*
X126148755Y-72927988D01*
X126072012Y-72851245D01*
X126011709Y-72760995D01*
X125970174Y-72660721D01*
X125949000Y-72554270D01*
X125949000Y-72445730D01*
X125970174Y-72339279D01*
X126011709Y-72239005D01*
X126072012Y-72148755D01*
X126148755Y-72072012D01*
X126239005Y-72011709D01*
X126339279Y-71970174D01*
X126445730Y-71949000D01*
X126554270Y-71949000D01*
X126660721Y-71970174D01*
X126660721Y-71970174D01*
G37*
G36*
X109410721Y-71970174D02*
X109510995Y-72011709D01*
X109601245Y-72072012D01*
X109677988Y-72148755D01*
X109738291Y-72239005D01*
X109779826Y-72339279D01*
X109801000Y-72445730D01*
X109801000Y-72554270D01*
X109779826Y-72660721D01*
X109738291Y-72760995D01*
X109677988Y-72851245D01*
X109601245Y-72927988D01*
X109510995Y-72988291D01*
X109410721Y-73029826D01*
X109304270Y-73051000D01*
X109195730Y-73051000D01*
X109089279Y-73029826D01*
X108989005Y-72988291D01*
X108898755Y-72927988D01*
X108822012Y-72851245D01*
X108761709Y-72760995D01*
X108720174Y-72660721D01*
X108699000Y-72554270D01*
X108699000Y-72445730D01*
X108720174Y-72339279D01*
X108761709Y-72239005D01*
X108822012Y-72148755D01*
X108898755Y-72072012D01*
X108989005Y-72011709D01*
X109089279Y-71970174D01*
X109195730Y-71949000D01*
X109304270Y-71949000D01*
X109410721Y-71970174D01*
X109410721Y-71970174D01*
G37*
G36*
X99352527Y-69988736D02*
X99452410Y-70008604D01*
X99734674Y-70125521D01*
X99988705Y-70295259D01*
X100204741Y-70511295D01*
X100374479Y-70765326D01*
X100452147Y-70952835D01*
X100491396Y-71047591D01*
X100530261Y-71242975D01*
X100551000Y-71347240D01*
X100551000Y-71652760D01*
X100491396Y-71952410D01*
X100374479Y-72234674D01*
X100204741Y-72488705D01*
X99988705Y-72704741D01*
X99734674Y-72874479D01*
X99452410Y-72991396D01*
X99352527Y-73011264D01*
X99152762Y-73051000D01*
X98847238Y-73051000D01*
X98647473Y-73011264D01*
X98547590Y-72991396D01*
X98265326Y-72874479D01*
X98011295Y-72704741D01*
X97795259Y-72488705D01*
X97625521Y-72234674D01*
X97508604Y-71952410D01*
X97449000Y-71652760D01*
X97449000Y-71347240D01*
X97469740Y-71242975D01*
X97508604Y-71047591D01*
X97547853Y-70952835D01*
X97625521Y-70765326D01*
X97795259Y-70511295D01*
X98011295Y-70295259D01*
X98265326Y-70125521D01*
X98547590Y-70008604D01*
X98647473Y-69988736D01*
X98847238Y-69949000D01*
X99152762Y-69949000D01*
X99352527Y-69988736D01*
X99352527Y-69988736D01*
G37*
G36*
X106207025Y-70610590D02*
X106358012Y-70656392D01*
X106497165Y-70730770D01*
X106619133Y-70830867D01*
X106719230Y-70952835D01*
X106793608Y-71091988D01*
X106839410Y-71242975D01*
X106854875Y-71400000D01*
X106839410Y-71557025D01*
X106793608Y-71708012D01*
X106719230Y-71847165D01*
X106619133Y-71969133D01*
X106497165Y-72069230D01*
X106358012Y-72143608D01*
X106207025Y-72189410D01*
X106089346Y-72201000D01*
X104510654Y-72201000D01*
X104392975Y-72189410D01*
X104241988Y-72143608D01*
X104102835Y-72069230D01*
X103980867Y-71969133D01*
X103880770Y-71847165D01*
X103806392Y-71708012D01*
X103760590Y-71557025D01*
X103745125Y-71400000D01*
X103760590Y-71242975D01*
X103806392Y-71091988D01*
X103880770Y-70952835D01*
X103980867Y-70830867D01*
X104102835Y-70730770D01*
X104241988Y-70656392D01*
X104392975Y-70610590D01*
X104510654Y-70599000D01*
X106089346Y-70599000D01*
X106207025Y-70610590D01*
X106207025Y-70610590D01*
G37*
G36*
X106207025Y-65410590D02*
X106358012Y-65456392D01*
X106497165Y-65530770D01*
X106619133Y-65630867D01*
X106719230Y-65752835D01*
X106793608Y-65891988D01*
X106839410Y-66042975D01*
X106854875Y-66200000D01*
X106839410Y-66357025D01*
X106793608Y-66508012D01*
X106719230Y-66647165D01*
X106619133Y-66769133D01*
X106497165Y-66869230D01*
X106358012Y-66943608D01*
X106207025Y-66989410D01*
X106089346Y-67001000D01*
X104510654Y-67001000D01*
X104392975Y-66989410D01*
X104241988Y-66943608D01*
X104102835Y-66869230D01*
X103980867Y-66769133D01*
X103880770Y-66647165D01*
X103806392Y-66508012D01*
X103760590Y-66357025D01*
X103745125Y-66200000D01*
X103760590Y-66042975D01*
X103806392Y-65891988D01*
X103880770Y-65752835D01*
X103980867Y-65630867D01*
X104102835Y-65530770D01*
X104241988Y-65456392D01*
X104392975Y-65410590D01*
X104510654Y-65399000D01*
X106089346Y-65399000D01*
X106207025Y-65410590D01*
X106207025Y-65410590D01*
G37*
G36*
X98907025Y-64510590D02*
X99058012Y-64556392D01*
X99197165Y-64630770D01*
X99319133Y-64730867D01*
X99419230Y-64852835D01*
X99493608Y-64991988D01*
X99539410Y-65142975D01*
X99554875Y-65300000D01*
X99539410Y-65457025D01*
X99493608Y-65608012D01*
X99419230Y-65747165D01*
X99319133Y-65869133D01*
X99197165Y-65969230D01*
X99058012Y-66043608D01*
X98907025Y-66089410D01*
X98789346Y-66101000D01*
X97210654Y-66101000D01*
X97092975Y-66089410D01*
X96941988Y-66043608D01*
X96802835Y-65969230D01*
X96680867Y-65869133D01*
X96580770Y-65747165D01*
X96506392Y-65608012D01*
X96460590Y-65457025D01*
X96445125Y-65300000D01*
X96460590Y-65142975D01*
X96506392Y-64991988D01*
X96580770Y-64852835D01*
X96680867Y-64730867D01*
X96802835Y-64630770D01*
X96941988Y-64556392D01*
X97092975Y-64510590D01*
X97210654Y-64499000D01*
X98789346Y-64499000D01*
X98907025Y-64510590D01*
X98907025Y-64510590D01*
G37*
G36*
X98318433Y-60634893D02*
X98408657Y-60652839D01*
X98450509Y-60670175D01*
X98663621Y-60758449D01*
X98893089Y-60911774D01*
X99088226Y-61106911D01*
X99241551Y-61336379D01*
X99293169Y-61460995D01*
X99330552Y-61551245D01*
X99347161Y-61591344D01*
X99401000Y-61862012D01*
X99401000Y-62137988D01*
X99347161Y-62408656D01*
X99241551Y-62663621D01*
X99088226Y-62893089D01*
X98893089Y-63088226D01*
X98663621Y-63241551D01*
X98514267Y-63303415D01*
X98408657Y-63347161D01*
X98318433Y-63365107D01*
X98137988Y-63401000D01*
X97862012Y-63401000D01*
X97681567Y-63365107D01*
X97591343Y-63347161D01*
X97485733Y-63303415D01*
X97336379Y-63241551D01*
X97106911Y-63088226D01*
X96911774Y-62893089D01*
X96758449Y-62663621D01*
X96652839Y-62408656D01*
X96599000Y-62137988D01*
X96599000Y-61862012D01*
X96652839Y-61591344D01*
X96669449Y-61551245D01*
X96706831Y-61460995D01*
X96758449Y-61336379D01*
X96911774Y-61106911D01*
X97106911Y-60911774D01*
X97336379Y-60758449D01*
X97549491Y-60670175D01*
X97591343Y-60652839D01*
X97681567Y-60634893D01*
X97862012Y-60599000D01*
X98137988Y-60599000D01*
X98318433Y-60634893D01*
X98318433Y-60634893D01*
G37*
G36*
X106660721Y-60670174D02*
X106760995Y-60711709D01*
X106851245Y-60772012D01*
X106927988Y-60848755D01*
X106988291Y-60939005D01*
X107029826Y-61039279D01*
X107051000Y-61145730D01*
X107051000Y-61254270D01*
X107029826Y-61360721D01*
X106988291Y-61460995D01*
X106927988Y-61551245D01*
X106851245Y-61627988D01*
X106760995Y-61688291D01*
X106660721Y-61729826D01*
X106554270Y-61751000D01*
X106445730Y-61751000D01*
X106339279Y-61729826D01*
X106239005Y-61688291D01*
X106148755Y-61627988D01*
X106072012Y-61551245D01*
X106011709Y-61460995D01*
X105970174Y-61360721D01*
X105949000Y-61254270D01*
X105949000Y-61145730D01*
X105970174Y-61039279D01*
X106011709Y-60939005D01*
X106072012Y-60848755D01*
X106148755Y-60772012D01*
X106239005Y-60711709D01*
X106339279Y-60670174D01*
X106445730Y-60649000D01*
X106554270Y-60649000D01*
X106660721Y-60670174D01*
X106660721Y-60670174D01*
G37*
M02*
