M48
;DRILL file {KiCad 5.0.1} date Wed 30 Jan 2019 04:31:48 PM CET
;FORMAT={-:-/ absolute / inch / decimal}
FMAT,2
INCH,TZ
T1C0.0157
T2C0.0197
T3C0.0315
T4C0.1063
%
G90
G05
M72
T1
X3.7795Y-2.6378
X3.7795Y-2.7165
X3.7795Y-2.7953
X3.7795Y-2.874
X3.7795Y-3.0315
X3.8583Y-2.6378
X3.8583Y-2.7165
X3.8976Y-3.0512
X3.8976Y-3.248
X3.937Y-2.3622
X3.937Y-2.4409
X3.937Y-2.6378
X3.937Y-2.7165
X3.9764Y-3.0512
X3.9764Y-3.248
X4.0157Y-2.3622
X4.0945Y-2.5039
X4.1211Y-2.4094
X4.1457Y-2.6811
X4.1929Y-3.0935
X4.251Y-2.7456
X4.252Y-3.1973
X4.3898Y-2.9823
X4.3898Y-3.061
X4.3898Y-3.1398
X4.4094Y-2.7362
X4.5669Y-2.7362
X4.5669Y-2.8937
X4.5669Y-3.1299
X4.7244Y-2.7362
X4.7244Y-2.8937
X4.7244Y-3.1299
X4.9048Y-2.9363
X4.9163Y-2.8543
X4.9921Y-2.7402
X4.9921Y-2.8031
X5.0389Y-2.9326
X5.0394Y-2.6929
X5.1097Y-3.0217
X5.1575Y-2.4469
X5.187Y-3.0906
X5.189Y-3.0394
X5.1969Y-2.6772
X5.1969Y-3.2677
X5.2362Y-2.6083
X5.2756Y-3.0906
T2
X5.2362Y-2.4803
X5.2362Y-2.5591
X5.Y-2.4016
X5.0787Y-2.4016
X5.1575Y-2.4016
X5.2362Y-2.4016
T3
X3.8346Y-2.5709G85X3.8819Y-2.5709
G05
X3.8346Y-2.9606G85X3.8819Y-2.9606
G05
X4.122Y-2.6063G85X4.1693Y-2.6063
G05
X4.122Y-2.811G85X4.1693Y-2.811
G05
X4.122Y-2.9449G85X4.1693Y-2.9449
G05
T4
X3.8976Y-2.815G85X3.8976Y-2.815
G05
T0
M30
