G04 #@! TF.GenerationSoftware,KiCad,Pcbnew,5.0.1*
G04 #@! TF.CreationDate,2019-01-30T16:31:46+01:00*
G04 #@! TF.ProjectId,esp8266_rgb_strip_controller,657370383236365F736578795F737472,rev?*
G04 #@! TF.SameCoordinates,Original*
G04 #@! TF.FileFunction,Copper,L2,Bot,Signal*
G04 #@! TF.FilePolarity,Positive*
%FSLAX46Y46*%
G04 Gerber Fmt 4.6, Leading zero omitted, Abs format (unit mm)*
G04 Created by KiCad (PCBNEW 5.0.1) date Wed 30 Jan 2019 04:31:46 PM CET*
%MOMM*%
%LPD*%
G01*
G04 APERTURE LIST*
G04 #@! TA.AperFunction,NonConductor*
%ADD10C,0.300000*%
G04 #@! TD*
G04 #@! TA.AperFunction,ComponentPad*
%ADD11O,3.000000X1.500000*%
G04 #@! TD*
G04 #@! TA.AperFunction,ComponentPad*
%ADD12C,3.000000*%
G04 #@! TD*
G04 #@! TA.AperFunction,BGAPad,CuDef*
%ADD13C,1.000000*%
G04 #@! TD*
G04 #@! TA.AperFunction,ViaPad*
%ADD14C,0.800000*%
G04 #@! TD*
G04 #@! TA.AperFunction,Conductor*
%ADD15C,0.500000*%
G04 #@! TD*
G04 #@! TA.AperFunction,Conductor*
%ADD16C,0.250000*%
G04 #@! TD*
G04 APERTURE END LIST*
D10*
X96178571Y-78785714D02*
X97678571Y-79285714D01*
X96178571Y-79785714D01*
X97678571Y-81071428D02*
X97678571Y-80214285D01*
X97678571Y-80642857D02*
X96178571Y-80642857D01*
X96392857Y-80500000D01*
X96535714Y-80357142D01*
X96607142Y-80214285D01*
D11*
G04 #@! TO.P,J1,1*
G04 #@! TO.N,+12V*
X105300000Y-74800000D03*
G04 #@! TO.P,J1,2*
G04 #@! TO.N,GND*
X105300000Y-66200000D03*
G04 #@! TO.P,J1,3*
G04 #@! TO.N,N/C*
X105300000Y-71400000D03*
G04 #@! TO.P,J1,*
G04 #@! TO.N,*
X98000000Y-65300000D03*
X98000000Y-75200000D03*
D12*
X99000000Y-71500000D03*
G04 #@! TD*
D13*
G04 #@! TO.P,TP1,1*
G04 #@! TO.N,Net-(TP1-Pad1)*
X126500000Y-75000000D03*
G04 #@! TD*
G04 #@! TO.P,TP2,1*
G04 #@! TO.N,Net-(TP2-Pad1)*
X126500000Y-72500000D03*
G04 #@! TD*
G04 #@! TO.P,TP3,1*
G04 #@! TO.N,PWM1*
X112500000Y-77750000D03*
G04 #@! TD*
G04 #@! TO.P,TP4,1*
G04 #@! TO.N,PWM2*
X112500000Y-79750000D03*
G04 #@! TD*
G04 #@! TO.P,TP5,1*
G04 #@! TO.N,PWM0*
X112500000Y-75750000D03*
G04 #@! TD*
G04 #@! TO.P,TP6,1*
G04 #@! TO.N,+12V*
X109250000Y-74750000D03*
G04 #@! TD*
G04 #@! TO.P,TP7,1*
G04 #@! TO.N,+3V3*
X106500000Y-61200000D03*
G04 #@! TD*
G04 #@! TO.P,TP8,1*
G04 #@! TO.N,GND*
X109250000Y-72500000D03*
G04 #@! TD*
D14*
G04 #@! TO.N,+12V*
X106500000Y-78575000D03*
X132000000Y-68000000D03*
G04 #@! TO.N,GND*
X100000000Y-60000000D03*
X102000000Y-60000000D03*
X134000000Y-78500000D03*
X100000000Y-62000000D03*
X105300000Y-68100000D03*
X101000000Y-77500000D03*
X101000000Y-82500000D03*
X99000000Y-82500000D03*
X99000000Y-77500000D03*
X116000000Y-73500000D03*
X120000000Y-69500000D03*
X116000000Y-69500000D03*
X112000000Y-69500000D03*
X132000000Y-83000000D03*
X96000000Y-67000000D03*
X96000000Y-69000000D03*
X96000000Y-71000000D03*
X96000000Y-73000000D03*
X96000000Y-77000000D03*
X98000000Y-69000000D03*
X98000000Y-67000000D03*
X100000000Y-67000000D03*
X100000000Y-69000000D03*
X120000000Y-73500000D03*
X120000000Y-79500000D03*
X116000000Y-79500000D03*
X131750000Y-78500000D03*
X127987347Y-74487347D03*
G04 #@! TO.N,+3V3*
X108000000Y-81212500D03*
X129787500Y-76750000D03*
X131000000Y-62150000D03*
X104675000Y-61200000D03*
G04 #@! TO.N,PWM0*
X111500000Y-75750000D03*
X126800000Y-69600000D03*
G04 #@! TO.N,PWM2*
X111500000Y-79750000D03*
X126800000Y-71200000D03*
G04 #@! TO.N,PWM1*
X111500000Y-77750000D03*
X128000000Y-68400000D03*
G04 #@! TO.N,ADC*
X107975000Y-69737347D03*
X104000000Y-63600000D03*
G04 #@! TO.N,Net-(J4-Pad1)*
X133000000Y-66250000D03*
X131800000Y-77200000D03*
G04 #@! TO.N,Net-(TP1-Pad1)*
X124580858Y-74580858D03*
G04 #@! TO.N,Net-(TP2-Pad1)*
X124875020Y-72500000D03*
G04 #@! TD*
D15*
G04 #@! TO.N,+12V*
X109200000Y-74800000D02*
X109250000Y-74750000D01*
X105300000Y-74800000D02*
X109200000Y-74800000D01*
X106500000Y-78575000D02*
X106500000Y-82000000D01*
X106900020Y-82400020D02*
X129349980Y-82400020D01*
X106500000Y-82000000D02*
X106900020Y-82400020D01*
X129349980Y-82400020D02*
X130750000Y-81000000D01*
X132000000Y-69750000D02*
X130750000Y-71000000D01*
X132000000Y-68000000D02*
X132000000Y-69750000D01*
X130750000Y-81000000D02*
X130750000Y-71000000D01*
G04 #@! TO.N,+3V3*
X130949999Y-62200001D02*
X131000000Y-62150000D01*
X131000000Y-64000000D02*
X131000000Y-62150000D01*
X131000000Y-66658002D02*
X131000000Y-64000000D01*
X104675000Y-61200000D02*
X106500000Y-61200000D01*
X129787500Y-67870502D02*
X130750000Y-66908002D01*
X129787500Y-76750000D02*
X129787500Y-67870502D01*
X130400000Y-67258002D02*
X130750000Y-66908002D01*
X130750000Y-66908002D02*
X131000000Y-66658002D01*
X108487510Y-81700010D02*
X108000000Y-81212500D01*
X129787500Y-80462500D02*
X128549990Y-81700010D01*
X128549990Y-81700010D02*
X108487510Y-81700010D01*
X129787500Y-76750000D02*
X129787500Y-80462500D01*
X108000000Y-77750000D02*
X108000000Y-81212500D01*
X104675000Y-61200000D02*
X103100000Y-61200000D01*
X103100000Y-61200000D02*
X102400000Y-61900000D01*
X103150000Y-77000000D02*
X107250000Y-77000000D01*
X102400000Y-61900000D02*
X102400000Y-76250000D01*
X102400000Y-76250000D02*
X103150000Y-77000000D01*
X107250000Y-77000000D02*
X108000000Y-77750000D01*
D16*
G04 #@! TO.N,PWM0*
X113700000Y-77300000D02*
X119500000Y-77300000D01*
X124000000Y-70786388D02*
X124886388Y-69900000D01*
X112150000Y-75750000D02*
X113700000Y-77300000D01*
X111500000Y-75750000D02*
X112150000Y-75750000D01*
X119500000Y-77300000D02*
X123250000Y-73550000D01*
X123250000Y-73550000D02*
X123250000Y-71536388D01*
X123250000Y-71536388D02*
X124000000Y-70786388D01*
X125186388Y-69600000D02*
X124786388Y-70000000D01*
X126800000Y-69600000D02*
X125186388Y-69600000D01*
X124000000Y-70786388D02*
X124786388Y-70000000D01*
G04 #@! TO.N,PWM2*
X112065685Y-79750000D02*
X111500000Y-79750000D01*
X124150020Y-72099980D02*
X124150020Y-73986390D01*
X124150020Y-73986390D02*
X119936400Y-78200010D01*
X119936400Y-78200010D02*
X113615675Y-78200010D01*
X113615675Y-78200010D02*
X112065685Y-79750000D01*
X125050000Y-71200000D02*
X124650000Y-71600000D01*
X124850000Y-71400000D02*
X124650000Y-71600000D01*
X126800000Y-71200000D02*
X125050000Y-71200000D01*
X124650000Y-71600000D02*
X124150020Y-72099980D01*
G04 #@! TO.N,PWM1*
X111500000Y-77750000D02*
X119750000Y-77750000D01*
X119750000Y-77750000D02*
X123700010Y-73799990D01*
X123700010Y-73799990D02*
X123700010Y-72000000D01*
X123700010Y-72000000D02*
X123700010Y-71799990D01*
X123700010Y-71734305D02*
X123700010Y-72000000D01*
X128000000Y-68400000D02*
X128000000Y-70100000D01*
X127700000Y-70400000D02*
X126800000Y-70400000D01*
X128000000Y-70100000D02*
X127700000Y-70400000D01*
X125078596Y-70400000D02*
X124200000Y-71278596D01*
X126800000Y-70400000D02*
X125078596Y-70400000D01*
X124395950Y-71100000D02*
X124200000Y-71278596D01*
X124200000Y-71278596D02*
X123700010Y-71734305D01*
G04 #@! TO.N,ADC*
X106400000Y-63600000D02*
X104000000Y-63600000D01*
X107125010Y-64325010D02*
X106400000Y-63600000D01*
X107125010Y-69599704D02*
X107125010Y-64325010D01*
X107975000Y-69737347D02*
X107262653Y-69737347D01*
X107262653Y-69737347D02*
X107125010Y-69599704D01*
G04 #@! TO.N,Net-(J4-Pad1)*
X131800000Y-77200000D02*
X131795001Y-76795001D01*
X133000000Y-66250000D02*
X133000000Y-71000000D01*
X131800000Y-72200000D02*
X131800000Y-77200000D01*
X133000000Y-71000000D02*
X131800000Y-72200000D01*
G04 #@! TO.N,Net-(TP1-Pad1)*
X125580858Y-74580858D02*
X126000000Y-75000000D01*
X124580858Y-74580858D02*
X125580858Y-74580858D01*
G04 #@! TO.N,Net-(TP2-Pad1)*
X124875020Y-72500000D02*
X126000000Y-72500000D01*
G04 #@! TD*
G04 #@! TO.N,GND*
G36*
X96953221Y-59475000D02*
X107875000Y-59475000D01*
X107875000Y-67000000D01*
X107884515Y-67047835D01*
X107911612Y-67088388D01*
X107952165Y-67115485D01*
X108000000Y-67125000D01*
X126000000Y-67125000D01*
X126047835Y-67115485D01*
X126088388Y-67088388D01*
X126115485Y-67047835D01*
X126125000Y-67000000D01*
X126125000Y-60875680D01*
X126375000Y-60875680D01*
X126375000Y-61124320D01*
X126470151Y-61354034D01*
X126645966Y-61529849D01*
X126875680Y-61625000D01*
X127124320Y-61625000D01*
X127354034Y-61529849D01*
X127529849Y-61354034D01*
X127625000Y-61124320D01*
X127625000Y-60875680D01*
X128375000Y-60875680D01*
X128375000Y-61124320D01*
X128470151Y-61354034D01*
X128645966Y-61529849D01*
X128875680Y-61625000D01*
X129124320Y-61625000D01*
X129354034Y-61529849D01*
X129529849Y-61354034D01*
X129625000Y-61124320D01*
X129625000Y-60875680D01*
X129529849Y-60645966D01*
X129354034Y-60470151D01*
X129124320Y-60375000D01*
X128875680Y-60375000D01*
X128645966Y-60470151D01*
X128470151Y-60645966D01*
X128375000Y-60875680D01*
X127625000Y-60875680D01*
X127529849Y-60645966D01*
X127354034Y-60470151D01*
X127124320Y-60375000D01*
X126875680Y-60375000D01*
X126645966Y-60470151D01*
X126470151Y-60645966D01*
X126375000Y-60875680D01*
X126125000Y-60875680D01*
X126125000Y-59475000D01*
X138046779Y-59475000D01*
X138086851Y-59467029D01*
X138433745Y-59516708D01*
X138832621Y-59698066D01*
X139164564Y-59984087D01*
X139402887Y-60351776D01*
X139532892Y-60786480D01*
X139539766Y-60878988D01*
X139525000Y-60953222D01*
X139525001Y-82046779D01*
X139532971Y-82086848D01*
X139483292Y-82433746D01*
X139301935Y-82832620D01*
X139015912Y-83164565D01*
X138648228Y-83402886D01*
X138213520Y-83532892D01*
X138121012Y-83539766D01*
X138046779Y-83525000D01*
X96953221Y-83525000D01*
X96913149Y-83532971D01*
X96566254Y-83483292D01*
X96167380Y-83301935D01*
X95835435Y-83015912D01*
X95597114Y-82648228D01*
X95467108Y-82213520D01*
X95460234Y-82121012D01*
X95475000Y-82046779D01*
X95475000Y-81882143D01*
X98770000Y-81882143D01*
X98770000Y-78117857D01*
X95475000Y-78117857D01*
X95475000Y-75200000D01*
X96102960Y-75200000D01*
X96190273Y-75638953D01*
X96438920Y-76011080D01*
X96811047Y-76259727D01*
X97139197Y-76325000D01*
X98860803Y-76325000D01*
X99188953Y-76259727D01*
X99561080Y-76011080D01*
X99809727Y-75638953D01*
X99897040Y-75200000D01*
X99809727Y-74761047D01*
X99561080Y-74388920D01*
X99188953Y-74140273D01*
X98860803Y-74075000D01*
X97139197Y-74075000D01*
X96811047Y-74140273D01*
X96438920Y-74388920D01*
X96190273Y-74761047D01*
X96102960Y-75200000D01*
X95475000Y-75200000D01*
X95475000Y-71127039D01*
X97125000Y-71127039D01*
X97125000Y-71872961D01*
X97410452Y-72562102D01*
X97937898Y-73089548D01*
X98627039Y-73375000D01*
X99372961Y-73375000D01*
X100062102Y-73089548D01*
X100589548Y-72562102D01*
X100875000Y-71872961D01*
X100875000Y-71127039D01*
X100589548Y-70437898D01*
X100062102Y-69910452D01*
X99372961Y-69625000D01*
X98627039Y-69625000D01*
X97937898Y-69910452D01*
X97410452Y-70437898D01*
X97125000Y-71127039D01*
X95475000Y-71127039D01*
X95475000Y-65300000D01*
X96102960Y-65300000D01*
X96190273Y-65738953D01*
X96438920Y-66111080D01*
X96811047Y-66359727D01*
X97139197Y-66425000D01*
X98860803Y-66425000D01*
X99188953Y-66359727D01*
X99561080Y-66111080D01*
X99809727Y-65738953D01*
X99897040Y-65300000D01*
X99809727Y-64861047D01*
X99561080Y-64488920D01*
X99188953Y-64240273D01*
X98860803Y-64175000D01*
X97139197Y-64175000D01*
X96811047Y-64240273D01*
X96438920Y-64488920D01*
X96190273Y-64861047D01*
X96102960Y-65300000D01*
X95475000Y-65300000D01*
X95475000Y-61656876D01*
X96275000Y-61656876D01*
X96275000Y-62343124D01*
X96537615Y-62977134D01*
X97022866Y-63462385D01*
X97656876Y-63725000D01*
X98343124Y-63725000D01*
X98977134Y-63462385D01*
X99462385Y-62977134D01*
X99725000Y-62343124D01*
X99725000Y-61900000D01*
X101762756Y-61900000D01*
X101775000Y-61961555D01*
X101775001Y-76188440D01*
X101762756Y-76250000D01*
X101811263Y-76493862D01*
X101811264Y-76493863D01*
X101949401Y-76700600D01*
X102001588Y-76735470D01*
X102664529Y-77398412D01*
X102699400Y-77450600D01*
X102906137Y-77588737D01*
X103088445Y-77625000D01*
X103149999Y-77637244D01*
X103211553Y-77625000D01*
X106991118Y-77625000D01*
X107375000Y-78008883D01*
X107375001Y-80741484D01*
X107342987Y-80773498D01*
X107225000Y-81058343D01*
X107225000Y-81366657D01*
X107342987Y-81651502D01*
X107466505Y-81775020D01*
X107158903Y-81775020D01*
X107125000Y-81741118D01*
X107125000Y-79046015D01*
X107157013Y-79014002D01*
X107275000Y-78729157D01*
X107275000Y-78420843D01*
X107157013Y-78135998D01*
X106939002Y-77917987D01*
X106654157Y-77800000D01*
X106345843Y-77800000D01*
X106060998Y-77917987D01*
X105842987Y-78135998D01*
X105725000Y-78420843D01*
X105725000Y-78729157D01*
X105842987Y-79014002D01*
X105875000Y-79046015D01*
X105875001Y-81938440D01*
X105862756Y-82000000D01*
X105911263Y-82243862D01*
X105927229Y-82267756D01*
X106049401Y-82450600D01*
X106101588Y-82485470D01*
X106414549Y-82798432D01*
X106449420Y-82850620D01*
X106633841Y-82973846D01*
X106656157Y-82988757D01*
X106900020Y-83037264D01*
X106961575Y-83025020D01*
X129288425Y-83025020D01*
X129349980Y-83037264D01*
X129411535Y-83025020D01*
X129593843Y-82988757D01*
X129800580Y-82850620D01*
X129835452Y-82798430D01*
X131148413Y-81485470D01*
X131200600Y-81450600D01*
X131338737Y-81243863D01*
X131375000Y-81061555D01*
X131375000Y-81061554D01*
X131387244Y-81000001D01*
X131375000Y-80938447D01*
X131375000Y-80656876D01*
X135275000Y-80656876D01*
X135275000Y-81343124D01*
X135537615Y-81977134D01*
X136022866Y-82462385D01*
X136656876Y-82725000D01*
X137343124Y-82725000D01*
X137977134Y-82462385D01*
X138462385Y-81977134D01*
X138725000Y-81343124D01*
X138725000Y-80656876D01*
X138462385Y-80022866D01*
X137977134Y-79537615D01*
X137343124Y-79275000D01*
X136656876Y-79275000D01*
X136022866Y-79537615D01*
X135537615Y-80022866D01*
X135275000Y-80656876D01*
X131375000Y-80656876D01*
X131375000Y-77862813D01*
X131645843Y-77975000D01*
X131954157Y-77975000D01*
X132239002Y-77857013D01*
X132457013Y-77639002D01*
X132575000Y-77354157D01*
X132575000Y-77045843D01*
X132457013Y-76760998D01*
X132300000Y-76603985D01*
X132300000Y-72407106D01*
X133318732Y-71388375D01*
X133360480Y-71360480D01*
X133470989Y-71195090D01*
X133500000Y-71049243D01*
X133500000Y-71049242D01*
X133509795Y-71000001D01*
X133500000Y-70950760D01*
X133500000Y-66846015D01*
X133657013Y-66689002D01*
X133775000Y-66404157D01*
X133775000Y-66095843D01*
X133657013Y-65810998D01*
X133439002Y-65592987D01*
X133320304Y-65543821D01*
X133354034Y-65529849D01*
X133529849Y-65354034D01*
X133625000Y-65124320D01*
X133625000Y-64875680D01*
X133529849Y-64645966D01*
X133354034Y-64470151D01*
X133124320Y-64375000D01*
X132875680Y-64375000D01*
X132645966Y-64470151D01*
X132470151Y-64645966D01*
X132375000Y-64875680D01*
X132375000Y-65124320D01*
X132470151Y-65354034D01*
X132645966Y-65529849D01*
X132679696Y-65543821D01*
X132560998Y-65592987D01*
X132342987Y-65810998D01*
X132225000Y-66095843D01*
X132225000Y-66404157D01*
X132342987Y-66689002D01*
X132500000Y-66846015D01*
X132500000Y-67403985D01*
X132439002Y-67342987D01*
X132154157Y-67225000D01*
X131845843Y-67225000D01*
X131560998Y-67342987D01*
X131342987Y-67560998D01*
X131225000Y-67845843D01*
X131225000Y-68154157D01*
X131342987Y-68439002D01*
X131375000Y-68471015D01*
X131375001Y-69491116D01*
X130412500Y-70453618D01*
X130412500Y-68129384D01*
X131235468Y-67306418D01*
X131235472Y-67306413D01*
X131398412Y-67143473D01*
X131450600Y-67108602D01*
X131588737Y-66901865D01*
X131625000Y-66719557D01*
X131625000Y-66719556D01*
X131637244Y-66658003D01*
X131625000Y-66596449D01*
X131625000Y-62875680D01*
X132375000Y-62875680D01*
X132375000Y-63124320D01*
X132470151Y-63354034D01*
X132645966Y-63529849D01*
X132875680Y-63625000D01*
X133124320Y-63625000D01*
X133354034Y-63529849D01*
X133529849Y-63354034D01*
X133625000Y-63124320D01*
X133625000Y-62875680D01*
X133529849Y-62645966D01*
X133354034Y-62470151D01*
X133124320Y-62375000D01*
X132875680Y-62375000D01*
X132645966Y-62470151D01*
X132470151Y-62645966D01*
X132375000Y-62875680D01*
X131625000Y-62875680D01*
X131625000Y-62621015D01*
X131657013Y-62589002D01*
X131775000Y-62304157D01*
X131775000Y-61995843D01*
X131657013Y-61710998D01*
X131602891Y-61656876D01*
X135275000Y-61656876D01*
X135275000Y-62343124D01*
X135537615Y-62977134D01*
X136022866Y-63462385D01*
X136656876Y-63725000D01*
X137343124Y-63725000D01*
X137977134Y-63462385D01*
X138462385Y-62977134D01*
X138725000Y-62343124D01*
X138725000Y-61656876D01*
X138462385Y-61022866D01*
X137977134Y-60537615D01*
X137343124Y-60275000D01*
X136656876Y-60275000D01*
X136022866Y-60537615D01*
X135537615Y-61022866D01*
X135275000Y-61656876D01*
X131602891Y-61656876D01*
X131439002Y-61492987D01*
X131404986Y-61478897D01*
X131529849Y-61354034D01*
X131625000Y-61124320D01*
X131625000Y-60875680D01*
X132375000Y-60875680D01*
X132375000Y-61124320D01*
X132470151Y-61354034D01*
X132645966Y-61529849D01*
X132875680Y-61625000D01*
X133124320Y-61625000D01*
X133354034Y-61529849D01*
X133529849Y-61354034D01*
X133625000Y-61124320D01*
X133625000Y-60875680D01*
X133529849Y-60645966D01*
X133354034Y-60470151D01*
X133124320Y-60375000D01*
X132875680Y-60375000D01*
X132645966Y-60470151D01*
X132470151Y-60645966D01*
X132375000Y-60875680D01*
X131625000Y-60875680D01*
X131529849Y-60645966D01*
X131354034Y-60470151D01*
X131124320Y-60375000D01*
X130875680Y-60375000D01*
X130645966Y-60470151D01*
X130470151Y-60645966D01*
X130375000Y-60875680D01*
X130375000Y-61124320D01*
X130470151Y-61354034D01*
X130595014Y-61478897D01*
X130560998Y-61492987D01*
X130342987Y-61710998D01*
X130225000Y-61995843D01*
X130225000Y-62304157D01*
X130342987Y-62589002D01*
X130375001Y-62621016D01*
X130375000Y-64061554D01*
X130375001Y-64061559D01*
X130375000Y-66399120D01*
X130351589Y-66422530D01*
X130351584Y-66422534D01*
X129389088Y-67385032D01*
X129336901Y-67419902D01*
X129242624Y-67560998D01*
X129198763Y-67626640D01*
X129150256Y-67870502D01*
X129162501Y-67932062D01*
X129162500Y-76278985D01*
X129130487Y-76310998D01*
X129012500Y-76595843D01*
X129012500Y-76904157D01*
X129130487Y-77189002D01*
X129162500Y-77221015D01*
X129162501Y-80203615D01*
X128291108Y-81075010D01*
X108775000Y-81075010D01*
X108775000Y-81058343D01*
X108657013Y-80773498D01*
X108625000Y-80741485D01*
X108625000Y-77811553D01*
X108637244Y-77749999D01*
X108624986Y-77688373D01*
X108588737Y-77506137D01*
X108450600Y-77299400D01*
X108398413Y-77264530D01*
X107735472Y-76601590D01*
X107700600Y-76549400D01*
X107493863Y-76411263D01*
X107311555Y-76375000D01*
X107250000Y-76362756D01*
X107188445Y-76375000D01*
X103408883Y-76375000D01*
X103025000Y-75991118D01*
X103025000Y-74800000D01*
X103402960Y-74800000D01*
X103490273Y-75238953D01*
X103738920Y-75611080D01*
X104111047Y-75859727D01*
X104439197Y-75925000D01*
X106160803Y-75925000D01*
X106488953Y-75859727D01*
X106861080Y-75611080D01*
X106985415Y-75425000D01*
X108687563Y-75425000D01*
X108754352Y-75491789D01*
X109075952Y-75625000D01*
X109424048Y-75625000D01*
X109494439Y-75595843D01*
X110725000Y-75595843D01*
X110725000Y-75904157D01*
X110842987Y-76189002D01*
X111060998Y-76407013D01*
X111345843Y-76525000D01*
X111654157Y-76525000D01*
X111925266Y-76412703D01*
X112004352Y-76491789D01*
X112312196Y-76619302D01*
X112567894Y-76875000D01*
X112325952Y-76875000D01*
X112004352Y-77008211D01*
X111925266Y-77087297D01*
X111654157Y-76975000D01*
X111345843Y-76975000D01*
X111060998Y-77092987D01*
X110842987Y-77310998D01*
X110725000Y-77595843D01*
X110725000Y-77904157D01*
X110842987Y-78189002D01*
X111060998Y-78407013D01*
X111345843Y-78525000D01*
X111654157Y-78525000D01*
X111925266Y-78412703D01*
X112004352Y-78491789D01*
X112325952Y-78625000D01*
X112483579Y-78625000D01*
X112168261Y-78940318D01*
X112004352Y-79008211D01*
X111925266Y-79087297D01*
X111654157Y-78975000D01*
X111345843Y-78975000D01*
X111060998Y-79092987D01*
X110842987Y-79310998D01*
X110725000Y-79595843D01*
X110725000Y-79904157D01*
X110842987Y-80189002D01*
X111060998Y-80407013D01*
X111345843Y-80525000D01*
X111654157Y-80525000D01*
X111925266Y-80412703D01*
X112004352Y-80491789D01*
X112325952Y-80625000D01*
X112674048Y-80625000D01*
X112995648Y-80491789D01*
X113241789Y-80245648D01*
X113375000Y-79924048D01*
X113375000Y-79575952D01*
X113249595Y-79273197D01*
X113822782Y-78700010D01*
X119887159Y-78700010D01*
X119936400Y-78709805D01*
X119985641Y-78700010D01*
X119985643Y-78700010D01*
X120131490Y-78670999D01*
X120296880Y-78560490D01*
X120324777Y-78518739D01*
X123894501Y-74949016D01*
X123923845Y-75019860D01*
X124141856Y-75237871D01*
X124426701Y-75355858D01*
X124735015Y-75355858D01*
X125019860Y-75237871D01*
X125176873Y-75080858D01*
X125373752Y-75080858D01*
X125681266Y-75388373D01*
X125726217Y-75418408D01*
X125758211Y-75495648D01*
X126004352Y-75741789D01*
X126325952Y-75875000D01*
X126674048Y-75875000D01*
X126995648Y-75741789D01*
X127241789Y-75495648D01*
X127375000Y-75174048D01*
X127375000Y-74825952D01*
X127241789Y-74504352D01*
X126995648Y-74258211D01*
X126674048Y-74125000D01*
X126325952Y-74125000D01*
X126004352Y-74258211D01*
X125984835Y-74277728D01*
X125969234Y-74262128D01*
X125941338Y-74220378D01*
X125775948Y-74109869D01*
X125630101Y-74080858D01*
X125630099Y-74080858D01*
X125580858Y-74071063D01*
X125531617Y-74080858D01*
X125176873Y-74080858D01*
X125019860Y-73923845D01*
X124735015Y-73805858D01*
X124650020Y-73805858D01*
X124650020Y-73245656D01*
X124720863Y-73275000D01*
X125029177Y-73275000D01*
X125314022Y-73157013D01*
X125471035Y-73000000D01*
X125762563Y-73000000D01*
X126004352Y-73241789D01*
X126325952Y-73375000D01*
X126674048Y-73375000D01*
X126995648Y-73241789D01*
X127241789Y-72995648D01*
X127375000Y-72674048D01*
X127375000Y-72325952D01*
X127241789Y-72004352D01*
X127136788Y-71899351D01*
X127239002Y-71857013D01*
X127457013Y-71639002D01*
X127575000Y-71354157D01*
X127575000Y-71045843D01*
X127514590Y-70900000D01*
X127650759Y-70900000D01*
X127700000Y-70909795D01*
X127749241Y-70900000D01*
X127749243Y-70900000D01*
X127895090Y-70870989D01*
X128060480Y-70760480D01*
X128088377Y-70718729D01*
X128318729Y-70488377D01*
X128360480Y-70460480D01*
X128470989Y-70295090D01*
X128500000Y-70149243D01*
X128500000Y-70149242D01*
X128509795Y-70100001D01*
X128500000Y-70050759D01*
X128500000Y-68996015D01*
X128657013Y-68839002D01*
X128775000Y-68554157D01*
X128775000Y-68245843D01*
X128657013Y-67960998D01*
X128439002Y-67742987D01*
X128154157Y-67625000D01*
X127845843Y-67625000D01*
X127560998Y-67742987D01*
X127342987Y-67960998D01*
X127225000Y-68245843D01*
X127225000Y-68554157D01*
X127342987Y-68839002D01*
X127500000Y-68996015D01*
X127500001Y-69264779D01*
X127457013Y-69160998D01*
X127239002Y-68942987D01*
X126954157Y-68825000D01*
X126645843Y-68825000D01*
X126360998Y-68942987D01*
X126203985Y-69100000D01*
X125235628Y-69100000D01*
X125186387Y-69090205D01*
X125137146Y-69100000D01*
X125137145Y-69100000D01*
X124991298Y-69129011D01*
X124825908Y-69239520D01*
X124798013Y-69281268D01*
X124567656Y-69511626D01*
X124567654Y-69511627D01*
X124467654Y-69611627D01*
X124008589Y-70070693D01*
X123681269Y-70398013D01*
X123681266Y-70398015D01*
X122931268Y-71148014D01*
X122889521Y-71175908D01*
X122820908Y-71278596D01*
X122779012Y-71341298D01*
X122740205Y-71536388D01*
X122750001Y-71585634D01*
X122750000Y-73342893D01*
X119292894Y-76800000D01*
X113907107Y-76800000D01*
X113274290Y-76167184D01*
X113375000Y-75924048D01*
X113375000Y-75575952D01*
X113241789Y-75254352D01*
X112995648Y-75008211D01*
X112674048Y-74875000D01*
X112325952Y-74875000D01*
X112004352Y-75008211D01*
X111925266Y-75087297D01*
X111654157Y-74975000D01*
X111345843Y-74975000D01*
X111060998Y-75092987D01*
X110842987Y-75310998D01*
X110725000Y-75595843D01*
X109494439Y-75595843D01*
X109745648Y-75491789D01*
X109991789Y-75245648D01*
X110125000Y-74924048D01*
X110125000Y-74575952D01*
X109991789Y-74254352D01*
X109745648Y-74008211D01*
X109424048Y-73875000D01*
X109075952Y-73875000D01*
X108754352Y-74008211D01*
X108587563Y-74175000D01*
X106985415Y-74175000D01*
X106861080Y-73988920D01*
X106488953Y-73740273D01*
X106160803Y-73675000D01*
X104439197Y-73675000D01*
X104111047Y-73740273D01*
X103738920Y-73988920D01*
X103490273Y-74361047D01*
X103402960Y-74800000D01*
X103025000Y-74800000D01*
X103025000Y-73290238D01*
X108642195Y-73290238D01*
X108679602Y-73504553D01*
X109107447Y-73646368D01*
X109556994Y-73613659D01*
X109820398Y-73504553D01*
X109857805Y-73290238D01*
X109250000Y-72682434D01*
X108642195Y-73290238D01*
X103025000Y-73290238D01*
X103025000Y-71400000D01*
X103402960Y-71400000D01*
X103490273Y-71838953D01*
X103738920Y-72211080D01*
X104111047Y-72459727D01*
X104439197Y-72525000D01*
X106160803Y-72525000D01*
X106488953Y-72459727D01*
X106642026Y-72357447D01*
X108103632Y-72357447D01*
X108136341Y-72806994D01*
X108245447Y-73070398D01*
X108459762Y-73107805D01*
X109067566Y-72500000D01*
X109432434Y-72500000D01*
X110040238Y-73107805D01*
X110254553Y-73070398D01*
X110396368Y-72642553D01*
X110363659Y-72193006D01*
X110254553Y-71929602D01*
X110040238Y-71892195D01*
X109432434Y-72500000D01*
X109067566Y-72500000D01*
X108459762Y-71892195D01*
X108245447Y-71929602D01*
X108103632Y-72357447D01*
X106642026Y-72357447D01*
X106861080Y-72211080D01*
X107109727Y-71838953D01*
X107135424Y-71709762D01*
X108642195Y-71709762D01*
X109250000Y-72317566D01*
X109857805Y-71709762D01*
X109820398Y-71495447D01*
X109392553Y-71353632D01*
X108943006Y-71386341D01*
X108679602Y-71495447D01*
X108642195Y-71709762D01*
X107135424Y-71709762D01*
X107197040Y-71400000D01*
X107109727Y-70961047D01*
X106861080Y-70588920D01*
X106488953Y-70340273D01*
X106160803Y-70275000D01*
X104439197Y-70275000D01*
X104111047Y-70340273D01*
X103738920Y-70588920D01*
X103490273Y-70961047D01*
X103402960Y-71400000D01*
X103025000Y-71400000D01*
X103025000Y-66542818D01*
X103210162Y-66542818D01*
X103222908Y-66610071D01*
X103480854Y-67086712D01*
X103901568Y-67428359D01*
X104421000Y-67583000D01*
X105171000Y-67583000D01*
X105171000Y-66329000D01*
X103332063Y-66329000D01*
X103210162Y-66542818D01*
X103025000Y-66542818D01*
X103025000Y-65857182D01*
X103210162Y-65857182D01*
X103332063Y-66071000D01*
X105171000Y-66071000D01*
X105171000Y-64817000D01*
X104421000Y-64817000D01*
X103901568Y-64971641D01*
X103480854Y-65313288D01*
X103222908Y-65789929D01*
X103210162Y-65857182D01*
X103025000Y-65857182D01*
X103025000Y-63445843D01*
X103225000Y-63445843D01*
X103225000Y-63754157D01*
X103342987Y-64039002D01*
X103560998Y-64257013D01*
X103845843Y-64375000D01*
X104154157Y-64375000D01*
X104439002Y-64257013D01*
X104596015Y-64100000D01*
X106192894Y-64100000D01*
X106625011Y-64532118D01*
X106625011Y-64949783D01*
X106179000Y-64817000D01*
X105429000Y-64817000D01*
X105429000Y-66071000D01*
X105449000Y-66071000D01*
X105449000Y-66329000D01*
X105429000Y-66329000D01*
X105429000Y-67583000D01*
X106179000Y-67583000D01*
X106625010Y-67450217D01*
X106625010Y-69550463D01*
X106615215Y-69599704D01*
X106625010Y-69648945D01*
X106625010Y-69648946D01*
X106654021Y-69794793D01*
X106764530Y-69960184D01*
X106806281Y-69988081D01*
X106874276Y-70056076D01*
X106902173Y-70097827D01*
X107067563Y-70208336D01*
X107213410Y-70237347D01*
X107213411Y-70237347D01*
X107262653Y-70247142D01*
X107311896Y-70237347D01*
X107378985Y-70237347D01*
X107535998Y-70394360D01*
X107820843Y-70512347D01*
X108129157Y-70512347D01*
X108414002Y-70394360D01*
X108632013Y-70176349D01*
X108750000Y-69891504D01*
X108750000Y-69583190D01*
X108632013Y-69298345D01*
X108414002Y-69080334D01*
X108129157Y-68962347D01*
X107820843Y-68962347D01*
X107625010Y-69043464D01*
X107625010Y-64374251D01*
X107634805Y-64325010D01*
X107625010Y-64275767D01*
X107595999Y-64129920D01*
X107485490Y-63964530D01*
X107443742Y-63936635D01*
X106788376Y-63281270D01*
X106760480Y-63239520D01*
X106595090Y-63129011D01*
X106449243Y-63100000D01*
X106449241Y-63100000D01*
X106400000Y-63090205D01*
X106350759Y-63100000D01*
X104596015Y-63100000D01*
X104439002Y-62942987D01*
X104154157Y-62825000D01*
X103845843Y-62825000D01*
X103560998Y-62942987D01*
X103342987Y-63160998D01*
X103225000Y-63445843D01*
X103025000Y-63445843D01*
X103025000Y-62158883D01*
X103358883Y-61825000D01*
X104203985Y-61825000D01*
X104235998Y-61857013D01*
X104520843Y-61975000D01*
X104829157Y-61975000D01*
X105114002Y-61857013D01*
X105146015Y-61825000D01*
X105887563Y-61825000D01*
X106004352Y-61941789D01*
X106325952Y-62075000D01*
X106674048Y-62075000D01*
X106995648Y-61941789D01*
X107241789Y-61695648D01*
X107375000Y-61374048D01*
X107375000Y-61025952D01*
X107241789Y-60704352D01*
X106995648Y-60458211D01*
X106674048Y-60325000D01*
X106325952Y-60325000D01*
X106004352Y-60458211D01*
X105887563Y-60575000D01*
X105146015Y-60575000D01*
X105114002Y-60542987D01*
X104829157Y-60425000D01*
X104520843Y-60425000D01*
X104235998Y-60542987D01*
X104203985Y-60575000D01*
X103161553Y-60575000D01*
X103099999Y-60562756D01*
X103038445Y-60575000D01*
X102856137Y-60611263D01*
X102649400Y-60749400D01*
X102614531Y-60801585D01*
X102001590Y-61414528D01*
X101949400Y-61449400D01*
X101849831Y-61598417D01*
X101811263Y-61656138D01*
X101762756Y-61900000D01*
X99725000Y-61900000D01*
X99725000Y-61656876D01*
X99462385Y-61022866D01*
X98977134Y-60537615D01*
X98343124Y-60275000D01*
X97656876Y-60275000D01*
X97022866Y-60537615D01*
X96537615Y-61022866D01*
X96275000Y-61656876D01*
X95475000Y-61656876D01*
X95475000Y-60953221D01*
X95467029Y-60913149D01*
X95516708Y-60566255D01*
X95698066Y-60167379D01*
X95984087Y-59835436D01*
X96351776Y-59597113D01*
X96786480Y-59467108D01*
X96878988Y-59460234D01*
X96953221Y-59475000D01*
X96953221Y-59475000D01*
G37*
X96953221Y-59475000D02*
X107875000Y-59475000D01*
X107875000Y-67000000D01*
X107884515Y-67047835D01*
X107911612Y-67088388D01*
X107952165Y-67115485D01*
X108000000Y-67125000D01*
X126000000Y-67125000D01*
X126047835Y-67115485D01*
X126088388Y-67088388D01*
X126115485Y-67047835D01*
X126125000Y-67000000D01*
X126125000Y-60875680D01*
X126375000Y-60875680D01*
X126375000Y-61124320D01*
X126470151Y-61354034D01*
X126645966Y-61529849D01*
X126875680Y-61625000D01*
X127124320Y-61625000D01*
X127354034Y-61529849D01*
X127529849Y-61354034D01*
X127625000Y-61124320D01*
X127625000Y-60875680D01*
X128375000Y-60875680D01*
X128375000Y-61124320D01*
X128470151Y-61354034D01*
X128645966Y-61529849D01*
X128875680Y-61625000D01*
X129124320Y-61625000D01*
X129354034Y-61529849D01*
X129529849Y-61354034D01*
X129625000Y-61124320D01*
X129625000Y-60875680D01*
X129529849Y-60645966D01*
X129354034Y-60470151D01*
X129124320Y-60375000D01*
X128875680Y-60375000D01*
X128645966Y-60470151D01*
X128470151Y-60645966D01*
X128375000Y-60875680D01*
X127625000Y-60875680D01*
X127529849Y-60645966D01*
X127354034Y-60470151D01*
X127124320Y-60375000D01*
X126875680Y-60375000D01*
X126645966Y-60470151D01*
X126470151Y-60645966D01*
X126375000Y-60875680D01*
X126125000Y-60875680D01*
X126125000Y-59475000D01*
X138046779Y-59475000D01*
X138086851Y-59467029D01*
X138433745Y-59516708D01*
X138832621Y-59698066D01*
X139164564Y-59984087D01*
X139402887Y-60351776D01*
X139532892Y-60786480D01*
X139539766Y-60878988D01*
X139525000Y-60953222D01*
X139525001Y-82046779D01*
X139532971Y-82086848D01*
X139483292Y-82433746D01*
X139301935Y-82832620D01*
X139015912Y-83164565D01*
X138648228Y-83402886D01*
X138213520Y-83532892D01*
X138121012Y-83539766D01*
X138046779Y-83525000D01*
X96953221Y-83525000D01*
X96913149Y-83532971D01*
X96566254Y-83483292D01*
X96167380Y-83301935D01*
X95835435Y-83015912D01*
X95597114Y-82648228D01*
X95467108Y-82213520D01*
X95460234Y-82121012D01*
X95475000Y-82046779D01*
X95475000Y-81882143D01*
X98770000Y-81882143D01*
X98770000Y-78117857D01*
X95475000Y-78117857D01*
X95475000Y-75200000D01*
X96102960Y-75200000D01*
X96190273Y-75638953D01*
X96438920Y-76011080D01*
X96811047Y-76259727D01*
X97139197Y-76325000D01*
X98860803Y-76325000D01*
X99188953Y-76259727D01*
X99561080Y-76011080D01*
X99809727Y-75638953D01*
X99897040Y-75200000D01*
X99809727Y-74761047D01*
X99561080Y-74388920D01*
X99188953Y-74140273D01*
X98860803Y-74075000D01*
X97139197Y-74075000D01*
X96811047Y-74140273D01*
X96438920Y-74388920D01*
X96190273Y-74761047D01*
X96102960Y-75200000D01*
X95475000Y-75200000D01*
X95475000Y-71127039D01*
X97125000Y-71127039D01*
X97125000Y-71872961D01*
X97410452Y-72562102D01*
X97937898Y-73089548D01*
X98627039Y-73375000D01*
X99372961Y-73375000D01*
X100062102Y-73089548D01*
X100589548Y-72562102D01*
X100875000Y-71872961D01*
X100875000Y-71127039D01*
X100589548Y-70437898D01*
X100062102Y-69910452D01*
X99372961Y-69625000D01*
X98627039Y-69625000D01*
X97937898Y-69910452D01*
X97410452Y-70437898D01*
X97125000Y-71127039D01*
X95475000Y-71127039D01*
X95475000Y-65300000D01*
X96102960Y-65300000D01*
X96190273Y-65738953D01*
X96438920Y-66111080D01*
X96811047Y-66359727D01*
X97139197Y-66425000D01*
X98860803Y-66425000D01*
X99188953Y-66359727D01*
X99561080Y-66111080D01*
X99809727Y-65738953D01*
X99897040Y-65300000D01*
X99809727Y-64861047D01*
X99561080Y-64488920D01*
X99188953Y-64240273D01*
X98860803Y-64175000D01*
X97139197Y-64175000D01*
X96811047Y-64240273D01*
X96438920Y-64488920D01*
X96190273Y-64861047D01*
X96102960Y-65300000D01*
X95475000Y-65300000D01*
X95475000Y-61656876D01*
X96275000Y-61656876D01*
X96275000Y-62343124D01*
X96537615Y-62977134D01*
X97022866Y-63462385D01*
X97656876Y-63725000D01*
X98343124Y-63725000D01*
X98977134Y-63462385D01*
X99462385Y-62977134D01*
X99725000Y-62343124D01*
X99725000Y-61900000D01*
X101762756Y-61900000D01*
X101775000Y-61961555D01*
X101775001Y-76188440D01*
X101762756Y-76250000D01*
X101811263Y-76493862D01*
X101811264Y-76493863D01*
X101949401Y-76700600D01*
X102001588Y-76735470D01*
X102664529Y-77398412D01*
X102699400Y-77450600D01*
X102906137Y-77588737D01*
X103088445Y-77625000D01*
X103149999Y-77637244D01*
X103211553Y-77625000D01*
X106991118Y-77625000D01*
X107375000Y-78008883D01*
X107375001Y-80741484D01*
X107342987Y-80773498D01*
X107225000Y-81058343D01*
X107225000Y-81366657D01*
X107342987Y-81651502D01*
X107466505Y-81775020D01*
X107158903Y-81775020D01*
X107125000Y-81741118D01*
X107125000Y-79046015D01*
X107157013Y-79014002D01*
X107275000Y-78729157D01*
X107275000Y-78420843D01*
X107157013Y-78135998D01*
X106939002Y-77917987D01*
X106654157Y-77800000D01*
X106345843Y-77800000D01*
X106060998Y-77917987D01*
X105842987Y-78135998D01*
X105725000Y-78420843D01*
X105725000Y-78729157D01*
X105842987Y-79014002D01*
X105875000Y-79046015D01*
X105875001Y-81938440D01*
X105862756Y-82000000D01*
X105911263Y-82243862D01*
X105927229Y-82267756D01*
X106049401Y-82450600D01*
X106101588Y-82485470D01*
X106414549Y-82798432D01*
X106449420Y-82850620D01*
X106633841Y-82973846D01*
X106656157Y-82988757D01*
X106900020Y-83037264D01*
X106961575Y-83025020D01*
X129288425Y-83025020D01*
X129349980Y-83037264D01*
X129411535Y-83025020D01*
X129593843Y-82988757D01*
X129800580Y-82850620D01*
X129835452Y-82798430D01*
X131148413Y-81485470D01*
X131200600Y-81450600D01*
X131338737Y-81243863D01*
X131375000Y-81061555D01*
X131375000Y-81061554D01*
X131387244Y-81000001D01*
X131375000Y-80938447D01*
X131375000Y-80656876D01*
X135275000Y-80656876D01*
X135275000Y-81343124D01*
X135537615Y-81977134D01*
X136022866Y-82462385D01*
X136656876Y-82725000D01*
X137343124Y-82725000D01*
X137977134Y-82462385D01*
X138462385Y-81977134D01*
X138725000Y-81343124D01*
X138725000Y-80656876D01*
X138462385Y-80022866D01*
X137977134Y-79537615D01*
X137343124Y-79275000D01*
X136656876Y-79275000D01*
X136022866Y-79537615D01*
X135537615Y-80022866D01*
X135275000Y-80656876D01*
X131375000Y-80656876D01*
X131375000Y-77862813D01*
X131645843Y-77975000D01*
X131954157Y-77975000D01*
X132239002Y-77857013D01*
X132457013Y-77639002D01*
X132575000Y-77354157D01*
X132575000Y-77045843D01*
X132457013Y-76760998D01*
X132300000Y-76603985D01*
X132300000Y-72407106D01*
X133318732Y-71388375D01*
X133360480Y-71360480D01*
X133470989Y-71195090D01*
X133500000Y-71049243D01*
X133500000Y-71049242D01*
X133509795Y-71000001D01*
X133500000Y-70950760D01*
X133500000Y-66846015D01*
X133657013Y-66689002D01*
X133775000Y-66404157D01*
X133775000Y-66095843D01*
X133657013Y-65810998D01*
X133439002Y-65592987D01*
X133320304Y-65543821D01*
X133354034Y-65529849D01*
X133529849Y-65354034D01*
X133625000Y-65124320D01*
X133625000Y-64875680D01*
X133529849Y-64645966D01*
X133354034Y-64470151D01*
X133124320Y-64375000D01*
X132875680Y-64375000D01*
X132645966Y-64470151D01*
X132470151Y-64645966D01*
X132375000Y-64875680D01*
X132375000Y-65124320D01*
X132470151Y-65354034D01*
X132645966Y-65529849D01*
X132679696Y-65543821D01*
X132560998Y-65592987D01*
X132342987Y-65810998D01*
X132225000Y-66095843D01*
X132225000Y-66404157D01*
X132342987Y-66689002D01*
X132500000Y-66846015D01*
X132500000Y-67403985D01*
X132439002Y-67342987D01*
X132154157Y-67225000D01*
X131845843Y-67225000D01*
X131560998Y-67342987D01*
X131342987Y-67560998D01*
X131225000Y-67845843D01*
X131225000Y-68154157D01*
X131342987Y-68439002D01*
X131375000Y-68471015D01*
X131375001Y-69491116D01*
X130412500Y-70453618D01*
X130412500Y-68129384D01*
X131235468Y-67306418D01*
X131235472Y-67306413D01*
X131398412Y-67143473D01*
X131450600Y-67108602D01*
X131588737Y-66901865D01*
X131625000Y-66719557D01*
X131625000Y-66719556D01*
X131637244Y-66658003D01*
X131625000Y-66596449D01*
X131625000Y-62875680D01*
X132375000Y-62875680D01*
X132375000Y-63124320D01*
X132470151Y-63354034D01*
X132645966Y-63529849D01*
X132875680Y-63625000D01*
X133124320Y-63625000D01*
X133354034Y-63529849D01*
X133529849Y-63354034D01*
X133625000Y-63124320D01*
X133625000Y-62875680D01*
X133529849Y-62645966D01*
X133354034Y-62470151D01*
X133124320Y-62375000D01*
X132875680Y-62375000D01*
X132645966Y-62470151D01*
X132470151Y-62645966D01*
X132375000Y-62875680D01*
X131625000Y-62875680D01*
X131625000Y-62621015D01*
X131657013Y-62589002D01*
X131775000Y-62304157D01*
X131775000Y-61995843D01*
X131657013Y-61710998D01*
X131602891Y-61656876D01*
X135275000Y-61656876D01*
X135275000Y-62343124D01*
X135537615Y-62977134D01*
X136022866Y-63462385D01*
X136656876Y-63725000D01*
X137343124Y-63725000D01*
X137977134Y-63462385D01*
X138462385Y-62977134D01*
X138725000Y-62343124D01*
X138725000Y-61656876D01*
X138462385Y-61022866D01*
X137977134Y-60537615D01*
X137343124Y-60275000D01*
X136656876Y-60275000D01*
X136022866Y-60537615D01*
X135537615Y-61022866D01*
X135275000Y-61656876D01*
X131602891Y-61656876D01*
X131439002Y-61492987D01*
X131404986Y-61478897D01*
X131529849Y-61354034D01*
X131625000Y-61124320D01*
X131625000Y-60875680D01*
X132375000Y-60875680D01*
X132375000Y-61124320D01*
X132470151Y-61354034D01*
X132645966Y-61529849D01*
X132875680Y-61625000D01*
X133124320Y-61625000D01*
X133354034Y-61529849D01*
X133529849Y-61354034D01*
X133625000Y-61124320D01*
X133625000Y-60875680D01*
X133529849Y-60645966D01*
X133354034Y-60470151D01*
X133124320Y-60375000D01*
X132875680Y-60375000D01*
X132645966Y-60470151D01*
X132470151Y-60645966D01*
X132375000Y-60875680D01*
X131625000Y-60875680D01*
X131529849Y-60645966D01*
X131354034Y-60470151D01*
X131124320Y-60375000D01*
X130875680Y-60375000D01*
X130645966Y-60470151D01*
X130470151Y-60645966D01*
X130375000Y-60875680D01*
X130375000Y-61124320D01*
X130470151Y-61354034D01*
X130595014Y-61478897D01*
X130560998Y-61492987D01*
X130342987Y-61710998D01*
X130225000Y-61995843D01*
X130225000Y-62304157D01*
X130342987Y-62589002D01*
X130375001Y-62621016D01*
X130375000Y-64061554D01*
X130375001Y-64061559D01*
X130375000Y-66399120D01*
X130351589Y-66422530D01*
X130351584Y-66422534D01*
X129389088Y-67385032D01*
X129336901Y-67419902D01*
X129242624Y-67560998D01*
X129198763Y-67626640D01*
X129150256Y-67870502D01*
X129162501Y-67932062D01*
X129162500Y-76278985D01*
X129130487Y-76310998D01*
X129012500Y-76595843D01*
X129012500Y-76904157D01*
X129130487Y-77189002D01*
X129162500Y-77221015D01*
X129162501Y-80203615D01*
X128291108Y-81075010D01*
X108775000Y-81075010D01*
X108775000Y-81058343D01*
X108657013Y-80773498D01*
X108625000Y-80741485D01*
X108625000Y-77811553D01*
X108637244Y-77749999D01*
X108624986Y-77688373D01*
X108588737Y-77506137D01*
X108450600Y-77299400D01*
X108398413Y-77264530D01*
X107735472Y-76601590D01*
X107700600Y-76549400D01*
X107493863Y-76411263D01*
X107311555Y-76375000D01*
X107250000Y-76362756D01*
X107188445Y-76375000D01*
X103408883Y-76375000D01*
X103025000Y-75991118D01*
X103025000Y-74800000D01*
X103402960Y-74800000D01*
X103490273Y-75238953D01*
X103738920Y-75611080D01*
X104111047Y-75859727D01*
X104439197Y-75925000D01*
X106160803Y-75925000D01*
X106488953Y-75859727D01*
X106861080Y-75611080D01*
X106985415Y-75425000D01*
X108687563Y-75425000D01*
X108754352Y-75491789D01*
X109075952Y-75625000D01*
X109424048Y-75625000D01*
X109494439Y-75595843D01*
X110725000Y-75595843D01*
X110725000Y-75904157D01*
X110842987Y-76189002D01*
X111060998Y-76407013D01*
X111345843Y-76525000D01*
X111654157Y-76525000D01*
X111925266Y-76412703D01*
X112004352Y-76491789D01*
X112312196Y-76619302D01*
X112567894Y-76875000D01*
X112325952Y-76875000D01*
X112004352Y-77008211D01*
X111925266Y-77087297D01*
X111654157Y-76975000D01*
X111345843Y-76975000D01*
X111060998Y-77092987D01*
X110842987Y-77310998D01*
X110725000Y-77595843D01*
X110725000Y-77904157D01*
X110842987Y-78189002D01*
X111060998Y-78407013D01*
X111345843Y-78525000D01*
X111654157Y-78525000D01*
X111925266Y-78412703D01*
X112004352Y-78491789D01*
X112325952Y-78625000D01*
X112483579Y-78625000D01*
X112168261Y-78940318D01*
X112004352Y-79008211D01*
X111925266Y-79087297D01*
X111654157Y-78975000D01*
X111345843Y-78975000D01*
X111060998Y-79092987D01*
X110842987Y-79310998D01*
X110725000Y-79595843D01*
X110725000Y-79904157D01*
X110842987Y-80189002D01*
X111060998Y-80407013D01*
X111345843Y-80525000D01*
X111654157Y-80525000D01*
X111925266Y-80412703D01*
X112004352Y-80491789D01*
X112325952Y-80625000D01*
X112674048Y-80625000D01*
X112995648Y-80491789D01*
X113241789Y-80245648D01*
X113375000Y-79924048D01*
X113375000Y-79575952D01*
X113249595Y-79273197D01*
X113822782Y-78700010D01*
X119887159Y-78700010D01*
X119936400Y-78709805D01*
X119985641Y-78700010D01*
X119985643Y-78700010D01*
X120131490Y-78670999D01*
X120296880Y-78560490D01*
X120324777Y-78518739D01*
X123894501Y-74949016D01*
X123923845Y-75019860D01*
X124141856Y-75237871D01*
X124426701Y-75355858D01*
X124735015Y-75355858D01*
X125019860Y-75237871D01*
X125176873Y-75080858D01*
X125373752Y-75080858D01*
X125681266Y-75388373D01*
X125726217Y-75418408D01*
X125758211Y-75495648D01*
X126004352Y-75741789D01*
X126325952Y-75875000D01*
X126674048Y-75875000D01*
X126995648Y-75741789D01*
X127241789Y-75495648D01*
X127375000Y-75174048D01*
X127375000Y-74825952D01*
X127241789Y-74504352D01*
X126995648Y-74258211D01*
X126674048Y-74125000D01*
X126325952Y-74125000D01*
X126004352Y-74258211D01*
X125984835Y-74277728D01*
X125969234Y-74262128D01*
X125941338Y-74220378D01*
X125775948Y-74109869D01*
X125630101Y-74080858D01*
X125630099Y-74080858D01*
X125580858Y-74071063D01*
X125531617Y-74080858D01*
X125176873Y-74080858D01*
X125019860Y-73923845D01*
X124735015Y-73805858D01*
X124650020Y-73805858D01*
X124650020Y-73245656D01*
X124720863Y-73275000D01*
X125029177Y-73275000D01*
X125314022Y-73157013D01*
X125471035Y-73000000D01*
X125762563Y-73000000D01*
X126004352Y-73241789D01*
X126325952Y-73375000D01*
X126674048Y-73375000D01*
X126995648Y-73241789D01*
X127241789Y-72995648D01*
X127375000Y-72674048D01*
X127375000Y-72325952D01*
X127241789Y-72004352D01*
X127136788Y-71899351D01*
X127239002Y-71857013D01*
X127457013Y-71639002D01*
X127575000Y-71354157D01*
X127575000Y-71045843D01*
X127514590Y-70900000D01*
X127650759Y-70900000D01*
X127700000Y-70909795D01*
X127749241Y-70900000D01*
X127749243Y-70900000D01*
X127895090Y-70870989D01*
X128060480Y-70760480D01*
X128088377Y-70718729D01*
X128318729Y-70488377D01*
X128360480Y-70460480D01*
X128470989Y-70295090D01*
X128500000Y-70149243D01*
X128500000Y-70149242D01*
X128509795Y-70100001D01*
X128500000Y-70050759D01*
X128500000Y-68996015D01*
X128657013Y-68839002D01*
X128775000Y-68554157D01*
X128775000Y-68245843D01*
X128657013Y-67960998D01*
X128439002Y-67742987D01*
X128154157Y-67625000D01*
X127845843Y-67625000D01*
X127560998Y-67742987D01*
X127342987Y-67960998D01*
X127225000Y-68245843D01*
X127225000Y-68554157D01*
X127342987Y-68839002D01*
X127500000Y-68996015D01*
X127500001Y-69264779D01*
X127457013Y-69160998D01*
X127239002Y-68942987D01*
X126954157Y-68825000D01*
X126645843Y-68825000D01*
X126360998Y-68942987D01*
X126203985Y-69100000D01*
X125235628Y-69100000D01*
X125186387Y-69090205D01*
X125137146Y-69100000D01*
X125137145Y-69100000D01*
X124991298Y-69129011D01*
X124825908Y-69239520D01*
X124798013Y-69281268D01*
X124567656Y-69511626D01*
X124567654Y-69511627D01*
X124467654Y-69611627D01*
X124008589Y-70070693D01*
X123681269Y-70398013D01*
X123681266Y-70398015D01*
X122931268Y-71148014D01*
X122889521Y-71175908D01*
X122820908Y-71278596D01*
X122779012Y-71341298D01*
X122740205Y-71536388D01*
X122750001Y-71585634D01*
X122750000Y-73342893D01*
X119292894Y-76800000D01*
X113907107Y-76800000D01*
X113274290Y-76167184D01*
X113375000Y-75924048D01*
X113375000Y-75575952D01*
X113241789Y-75254352D01*
X112995648Y-75008211D01*
X112674048Y-74875000D01*
X112325952Y-74875000D01*
X112004352Y-75008211D01*
X111925266Y-75087297D01*
X111654157Y-74975000D01*
X111345843Y-74975000D01*
X111060998Y-75092987D01*
X110842987Y-75310998D01*
X110725000Y-75595843D01*
X109494439Y-75595843D01*
X109745648Y-75491789D01*
X109991789Y-75245648D01*
X110125000Y-74924048D01*
X110125000Y-74575952D01*
X109991789Y-74254352D01*
X109745648Y-74008211D01*
X109424048Y-73875000D01*
X109075952Y-73875000D01*
X108754352Y-74008211D01*
X108587563Y-74175000D01*
X106985415Y-74175000D01*
X106861080Y-73988920D01*
X106488953Y-73740273D01*
X106160803Y-73675000D01*
X104439197Y-73675000D01*
X104111047Y-73740273D01*
X103738920Y-73988920D01*
X103490273Y-74361047D01*
X103402960Y-74800000D01*
X103025000Y-74800000D01*
X103025000Y-73290238D01*
X108642195Y-73290238D01*
X108679602Y-73504553D01*
X109107447Y-73646368D01*
X109556994Y-73613659D01*
X109820398Y-73504553D01*
X109857805Y-73290238D01*
X109250000Y-72682434D01*
X108642195Y-73290238D01*
X103025000Y-73290238D01*
X103025000Y-71400000D01*
X103402960Y-71400000D01*
X103490273Y-71838953D01*
X103738920Y-72211080D01*
X104111047Y-72459727D01*
X104439197Y-72525000D01*
X106160803Y-72525000D01*
X106488953Y-72459727D01*
X106642026Y-72357447D01*
X108103632Y-72357447D01*
X108136341Y-72806994D01*
X108245447Y-73070398D01*
X108459762Y-73107805D01*
X109067566Y-72500000D01*
X109432434Y-72500000D01*
X110040238Y-73107805D01*
X110254553Y-73070398D01*
X110396368Y-72642553D01*
X110363659Y-72193006D01*
X110254553Y-71929602D01*
X110040238Y-71892195D01*
X109432434Y-72500000D01*
X109067566Y-72500000D01*
X108459762Y-71892195D01*
X108245447Y-71929602D01*
X108103632Y-72357447D01*
X106642026Y-72357447D01*
X106861080Y-72211080D01*
X107109727Y-71838953D01*
X107135424Y-71709762D01*
X108642195Y-71709762D01*
X109250000Y-72317566D01*
X109857805Y-71709762D01*
X109820398Y-71495447D01*
X109392553Y-71353632D01*
X108943006Y-71386341D01*
X108679602Y-71495447D01*
X108642195Y-71709762D01*
X107135424Y-71709762D01*
X107197040Y-71400000D01*
X107109727Y-70961047D01*
X106861080Y-70588920D01*
X106488953Y-70340273D01*
X106160803Y-70275000D01*
X104439197Y-70275000D01*
X104111047Y-70340273D01*
X103738920Y-70588920D01*
X103490273Y-70961047D01*
X103402960Y-71400000D01*
X103025000Y-71400000D01*
X103025000Y-66542818D01*
X103210162Y-66542818D01*
X103222908Y-66610071D01*
X103480854Y-67086712D01*
X103901568Y-67428359D01*
X104421000Y-67583000D01*
X105171000Y-67583000D01*
X105171000Y-66329000D01*
X103332063Y-66329000D01*
X103210162Y-66542818D01*
X103025000Y-66542818D01*
X103025000Y-65857182D01*
X103210162Y-65857182D01*
X103332063Y-66071000D01*
X105171000Y-66071000D01*
X105171000Y-64817000D01*
X104421000Y-64817000D01*
X103901568Y-64971641D01*
X103480854Y-65313288D01*
X103222908Y-65789929D01*
X103210162Y-65857182D01*
X103025000Y-65857182D01*
X103025000Y-63445843D01*
X103225000Y-63445843D01*
X103225000Y-63754157D01*
X103342987Y-64039002D01*
X103560998Y-64257013D01*
X103845843Y-64375000D01*
X104154157Y-64375000D01*
X104439002Y-64257013D01*
X104596015Y-64100000D01*
X106192894Y-64100000D01*
X106625011Y-64532118D01*
X106625011Y-64949783D01*
X106179000Y-64817000D01*
X105429000Y-64817000D01*
X105429000Y-66071000D01*
X105449000Y-66071000D01*
X105449000Y-66329000D01*
X105429000Y-66329000D01*
X105429000Y-67583000D01*
X106179000Y-67583000D01*
X106625010Y-67450217D01*
X106625010Y-69550463D01*
X106615215Y-69599704D01*
X106625010Y-69648945D01*
X106625010Y-69648946D01*
X106654021Y-69794793D01*
X106764530Y-69960184D01*
X106806281Y-69988081D01*
X106874276Y-70056076D01*
X106902173Y-70097827D01*
X107067563Y-70208336D01*
X107213410Y-70237347D01*
X107213411Y-70237347D01*
X107262653Y-70247142D01*
X107311896Y-70237347D01*
X107378985Y-70237347D01*
X107535998Y-70394360D01*
X107820843Y-70512347D01*
X108129157Y-70512347D01*
X108414002Y-70394360D01*
X108632013Y-70176349D01*
X108750000Y-69891504D01*
X108750000Y-69583190D01*
X108632013Y-69298345D01*
X108414002Y-69080334D01*
X108129157Y-68962347D01*
X107820843Y-68962347D01*
X107625010Y-69043464D01*
X107625010Y-64374251D01*
X107634805Y-64325010D01*
X107625010Y-64275767D01*
X107595999Y-64129920D01*
X107485490Y-63964530D01*
X107443742Y-63936635D01*
X106788376Y-63281270D01*
X106760480Y-63239520D01*
X106595090Y-63129011D01*
X106449243Y-63100000D01*
X106449241Y-63100000D01*
X106400000Y-63090205D01*
X106350759Y-63100000D01*
X104596015Y-63100000D01*
X104439002Y-62942987D01*
X104154157Y-62825000D01*
X103845843Y-62825000D01*
X103560998Y-62942987D01*
X103342987Y-63160998D01*
X103225000Y-63445843D01*
X103025000Y-63445843D01*
X103025000Y-62158883D01*
X103358883Y-61825000D01*
X104203985Y-61825000D01*
X104235998Y-61857013D01*
X104520843Y-61975000D01*
X104829157Y-61975000D01*
X105114002Y-61857013D01*
X105146015Y-61825000D01*
X105887563Y-61825000D01*
X106004352Y-61941789D01*
X106325952Y-62075000D01*
X106674048Y-62075000D01*
X106995648Y-61941789D01*
X107241789Y-61695648D01*
X107375000Y-61374048D01*
X107375000Y-61025952D01*
X107241789Y-60704352D01*
X106995648Y-60458211D01*
X106674048Y-60325000D01*
X106325952Y-60325000D01*
X106004352Y-60458211D01*
X105887563Y-60575000D01*
X105146015Y-60575000D01*
X105114002Y-60542987D01*
X104829157Y-60425000D01*
X104520843Y-60425000D01*
X104235998Y-60542987D01*
X104203985Y-60575000D01*
X103161553Y-60575000D01*
X103099999Y-60562756D01*
X103038445Y-60575000D01*
X102856137Y-60611263D01*
X102649400Y-60749400D01*
X102614531Y-60801585D01*
X102001590Y-61414528D01*
X101949400Y-61449400D01*
X101849831Y-61598417D01*
X101811263Y-61656138D01*
X101762756Y-61900000D01*
X99725000Y-61900000D01*
X99725000Y-61656876D01*
X99462385Y-61022866D01*
X98977134Y-60537615D01*
X98343124Y-60275000D01*
X97656876Y-60275000D01*
X97022866Y-60537615D01*
X96537615Y-61022866D01*
X96275000Y-61656876D01*
X95475000Y-61656876D01*
X95475000Y-60953221D01*
X95467029Y-60913149D01*
X95516708Y-60566255D01*
X95698066Y-60167379D01*
X95984087Y-59835436D01*
X96351776Y-59597113D01*
X96786480Y-59467108D01*
X96878988Y-59460234D01*
X96953221Y-59475000D01*
G04 #@! TD*
M02*
